<svg width="15" height="15" viewBox="0 0 15 15" fill="none" xmlns="http://www.w3.org/2000/svg">
<path d="M9.24 0.919999C11.1067 0.919999 12.4867 1.35333 13.38 2.22C14.2733 3.07333 14.72 4.18667 14.72 5.56C14.72 6.42667 14.5267 7.22667 14.14 7.96C13.7533 8.68 13.1733 9.26 12.4 9.7C11.6267 10.14 10.68 10.36 9.56 10.36H4.64V15H0.96V0.919999H9.24ZM8.74 7.48C9.5 7.48 10.0733 7.32667 10.46 7.02C10.8467 6.7 11.04 6.26667 11.04 5.72C11.04 5.12 10.8467 4.68 10.46 4.4C10.0867 4.10667 9.51333 3.96 8.74 3.96H4.64V7.48H8.74Z" fill="black"/>
</svg>
