<svg width="633" height="74" viewBox="0 0 633 74" fill="none" xmlns="http://www.w3.org/2000/svg">
<path d="M42.2 1.59999C51.5333 1.59999 58.4333 3.76666 62.9 8.09999C67.3667 12.3667 69.6 17.9333 69.6 24.8C69.6 29.1333 68.6333 33.1333 66.7 36.8C64.7667 40.4 61.8667 43.3 58 45.5C54.1333 47.7 49.4 48.8 43.8 48.8H19.2V72H0.8V1.59999H42.2ZM39.7 34.4C43.5 34.4 46.3667 33.6333 48.3 32.1C50.2333 30.5 51.2 28.3333 51.2 25.6C51.2 22.6 50.2333 20.4 48.3 19C46.4333 17.5333 43.5667 16.8 39.7 16.8H19.2V34.4H39.7ZM74.4328 72V1.59999H92.8328V72H74.4328ZM98.4789 36.8C98.4789 29.9333 100.012 23.7 103.079 18.1C106.146 12.5 110.646 8.1 116.579 4.9C122.579 1.63333 129.779 -2.86102e-06 138.179 -2.86102e-06C145.979 -2.86102e-06 152.579 1.36666 157.979 4.1C163.379 6.83333 167.479 10.3667 170.279 14.7C173.146 18.9667 174.812 23.4667 175.279 28.2H156.979C156.579 26.1333 155.646 24.1333 154.179 22.2C152.779 20.2 150.746 18.5333 148.079 17.2C145.412 15.8667 142.212 15.2 138.479 15.2C134.079 15.2 130.246 16.1667 126.979 18.1C123.712 19.9667 121.212 22.5667 119.479 25.9C117.746 29.1667 116.879 32.8 116.879 36.8C116.879 40.8 117.746 44.4667 119.479 47.8C121.212 51.0667 123.712 53.6667 126.979 55.6C130.246 57.4667 134.079 58.4 138.479 58.4C142.212 58.4 145.412 57.7333 148.079 56.4C150.746 55.0667 152.779 53.4333 154.179 51.5C155.646 49.5 156.579 47.4667 156.979 45.4H175.279C174.812 50.1333 173.146 54.6667 170.279 59C167.479 63.2667 163.379 66.7667 157.979 69.5C152.579 72.2333 145.979 73.6 138.179 73.6C129.779 73.6 122.579 72 116.579 68.8C110.646 65.5333 106.146 61.1 103.079 55.5C100.012 49.9 98.4789 43.6667 98.4789 36.8ZM241.668 51.9C242.735 54.9667 243.268 57.8333 243.268 60.5C243.268 61.7667 243.801 62.4 244.868 62.4C246.001 62.4 246.568 61.7667 246.568 60.5C246.568 57.6333 247.068 54.7667 248.068 51.9L265.868 1.59999H285.668L258.468 72H231.268L204.068 1.59999H223.868L241.668 51.9ZM287.323 72V1.59999H305.723V72H287.323ZM333.751 16.8V29.6H369.751V44H333.751V56.8H376.151V72H315.351V1.59999H376.151V16.8H333.751ZM408.136 50.8C408.736 53.4667 409.036 56.3 409.036 59.3C409.036 60.7 409.569 61.4 410.636 61.4C411.703 61.4 412.236 60.7 412.236 59.3C412.236 56.5 412.469 53.6667 412.936 50.8L421.436 1.59999H444.636L453.136 50.8C453.603 53.6667 453.836 56.5 453.836 59.3C453.836 60.7 454.369 61.4 455.436 61.4C456.503 61.4 457.036 60.7 457.036 59.3C457.036 56.3 457.336 53.4667 457.936 50.8L468.636 1.59999H488.236L469.436 72H442.236L435.236 29.2C434.836 26.6 434.636 23.6 434.636 20.2C434.636 18.8 434.103 18.1 433.036 18.1C431.969 18.1 431.436 18.8 431.436 20.2C431.436 23.6 431.236 26.6 430.836 29.2L423.836 72H396.636L377.836 1.59999H397.436L408.136 50.8ZM509.825 16.8V29.6H545.825V44H509.825V56.8H552.225V72H491.425V1.59999H552.225V16.8H509.825ZM601.673 1.59999C611.073 1.59999 617.973 3.56666 622.373 7.5C626.839 11.3667 629.073 16.6 629.073 23.2C629.073 25.8 628.406 28.4 627.073 31C625.806 33.6 623.939 35.8333 621.473 37.7C619.073 39.5667 616.206 40.7 612.873 41.1C611.739 41.2333 611.173 41.8333 611.173 42.9C611.173 43.9667 611.773 44.5667 612.973 44.7C617.373 45.1667 620.506 46.1667 622.373 47.7C624.239 49.1667 625.539 51 626.273 53.2L632.273 72H611.673L608.873 58.9C608.339 56.2333 607.573 54.2 606.573 52.8C605.573 51.4 604.106 50.4 602.173 49.8C600.239 49.1333 597.473 48.8 593.873 48.8H578.673V72H560.273V1.59999H601.673ZM598.173 34.4C601.839 34.4 604.839 33.6 607.173 32C609.506 30.4 610.673 28.2667 610.673 25.6C610.673 22.6 609.706 20.4 607.773 19C605.906 17.5333 603.039 16.8 599.173 16.8H578.673V34.4H598.173Z" fill="black"/>
</svg>
